<?xml version="1.0" standalone="no"?>
<!DOCTYPE svg PUBLIC "-//W3C//DTD SVG 20010904//EN"
 "http://www.w3.org/TR/2001/REC-SVG-20010904/DTD/svg10.dtd">
<svg version="1.0" xmlns="http://www.w3.org/2000/svg"
 width="500.000000pt" height="500.000000pt" viewBox="0 0 500.000000 500.000000"
 preserveAspectRatio="xMidYMid meet">

<g transform="translate(0.000000,500.000000) scale(0.100000,-0.100000)">
<path d="M2078 4770 c-816 -152 -1500 -750 -1762 -1541 -83 -249 -116 -461
-116 -739 1 -377 77 -694 252 -1039 l88 -175 -7 -116 c-6 -117 2 -215 16 -205
14 8 21 155 12 230 -4 39 -7 71 -6 73 1 1 18 -21 36 -50 156 -243 437 -512
704 -673 44 -26 93 -57 110 -68 17 -12 44 -20 65 -20 19 1 38 -4 42 -10 5 -9
15 -7 37 6 16 9 47 17 69 17 40 0 40 0 52 -50 7 -28 15 -50 18 -50 4 0 18 9
32 20 14 11 28 20 33 20 4 0 4 -51 1 -112 -4 -62 -4 -111 -1 -108 12 11 180
497 179 516 -3 35 -72 427 -80 449 -4 11 -9 -54 -12 -145 l-5 -165 -70 -167
c-38 -92 -73 -168 -76 -168 -4 0 -12 20 -19 45 -7 25 -16 47 -19 49 -3 2 -32
0 -64 -5 -65 -11 -79 -5 -222 84 -531 332 -880 861 -992 1502 -27 156 -24 501
5 666 128 718 554 1289 1195 1599 202 98 458 176 632 194 28 3 58 8 68 11 10
4 28 0 42 -9 21 -14 23 -20 15 -42 -8 -21 -3 -41 26 -110 20 -47 39 -83 41
-80 4 4 -19 216 -33 307 -5 32 -8 35 -33 31 -17 -2 -48 6 -79 22 -59 30 -48
30 -174 6z"/>
<path d="M3518 4550 l-28 -70 30 -49 c22 -36 49 -60 107 -96 345 -212 624
-521 803 -890 150 -307 220 -609 220 -945 0 -1045 -747 -1936 -1775 -2119
-230 -41 -277 -54 -327 -91 -53 -40 -88 -104 -87 -158 l1 -37 10 32 c15 45 94
136 132 150 61 23 126 14 126 -17 0 -9 9 -25 19 -34 19 -17 25 -17 122 -2 461
73 884 285 1235 619 l110 105 0 -191 c0 -129 6 -230 17 -309 27 -183 63 -280
81 -216 9 36 7 253 -4 353 -6 50 -24 158 -41 241 l-31 151 73 94 c41 52 94
126 119 164 24 39 47 72 51 75 18 15 163 331 197 430 151 439 168 892 51 1347
-139 542 -500 1046 -962 1342 -48 31 -116 74 -150 96 -46 30 -63 47 -67 68 -4
25 -8 20 -32 -43z"/>
<path d="M1753 4123 c-15 -3 -66 -66 -159 -196 l-137 -192 -52 -195 c-47 -177
-54 -220 -80 -467 l-29 -273 19 -177 c10 -98 21 -185 26 -194 4 -8 70 -66 147
-129 131 -106 144 -114 223 -137 46 -13 88 -28 92 -32 7 -7 99 -311 138 -453
5 -21 16 -38 23 -38 12 0 106 232 106 261 0 5 4 9 9 9 5 0 27 -75 50 -167 61
-244 61 -243 75 -243 8 0 30 49 56 123 51 146 56 158 64 137 33 -88 126 -344
126 -347 0 -2 6 -3 14 -3 8 0 48 75 97 181 46 99 86 182 90 184 3 3 32 -65 64
-150 32 -87 63 -155 70 -155 7 0 37 71 70 168 32 92 62 178 67 191 8 23 13 19
70 -67 33 -51 67 -92 74 -92 15 0 14 -2 80 265 27 112 53 195 62 203 9 6 28
12 42 12 21 0 47 26 146 147 65 81 126 158 135 172 9 14 45 116 79 226 34 110
69 205 76 211 8 6 14 16 14 23 0 6 -24 102 -54 213 -48 178 -67 230 -155 423
-55 121 -107 221 -115 223 -8 2 -85 -22 -170 -52 -86 -30 -164 -56 -173 -58
-14 -2 -24 14 -44 72 -15 43 -33 76 -41 78 -10 2 -51 -50 -118 -153 -56 -85
-104 -155 -106 -155 -2 0 1 12 7 28 52 132 99 266 99 277 0 41 -40 -1 -158
-167 -72 -101 -137 -192 -146 -203 -9 -13 -1 35 24 135 44 173 47 200 24 200
-8 0 -57 -23 -108 -50 l-93 -50 -125 217 -126 218 -173 1 c-96 1 -184 0 -196
-3z m202 -738 c21 -4 56 -15 76 -26 33 -16 40 -27 62 -96 53 -163 87 -281 87
-305 0 -69 -99 -187 -189 -225 -19 -8 -91 -19 -160 -24 -69 -5 -153 -14 -186
-19 -33 -5 -64 -10 -69 -10 -5 0 -6 26 -2 58 3 31 10 134 16 227 10 194 26
253 86 323 39 46 108 90 157 103 32 7 45 6 122 -6z m1182 -68 c109 -87 122
-122 134 -351 5 -94 11 -196 15 -228 4 -32 3 -58 -2 -58 -5 0 -36 5 -69 10
-33 5 -120 14 -191 19 -153 11 -207 32 -269 103 -58 66 -75 114 -81 225 -7
123 2 151 81 241 85 98 92 101 207 102 l97 0 78 -63z m-277 -623 c0 -2 -7 -4
-15 -4 -8 0 -15 4 -15 10 0 5 7 7 15 4 8 -4 15 -8 15 -10z m-224 -476 c2 -3
-29 -16 -69 -30 -70 -24 -74 -24 -139 -10 -38 8 -68 18 -68 21 0 4 28 21 62
37 l63 31 73 -23 c41 -12 75 -24 78 -26z"/>
<path d="M3376 2097 l-108 -102 -92 -385 c-51 -212 -96 -398 -100 -413 l-7
-28 -154 106 c-86 58 -159 105 -163 105 -4 0 -38 -50 -77 -110 -38 -60 -73
-110 -78 -110 -4 0 -65 41 -136 90 -71 50 -132 90 -137 90 -5 0 -31 -34 -59
-75 -27 -41 -53 -75 -56 -75 -4 0 -44 40 -89 90 -45 49 -87 90 -94 90 -6 -1
-31 -19 -56 -40 -39 -35 -46 -38 -52 -22 -4 9 -51 168 -104 352 -53 184 -101
340 -106 347 -5 6 -50 47 -100 89 l-91 78 7 -114 6 -115 54 -50 c51 -46 57
-57 86 -150 36 -115 272 -839 275 -843 1 -1 49 19 108 44 l106 46 102 -93 c55
-52 106 -93 112 -92 77 13 804 176 808 181 3 4 38 169 78 366 l73 360 53 65
52 66 27 174 c14 96 25 176 23 177 -1 2 -51 -43 -111 -99z"/>
<path d="M4476 1247 c-9 -71 -10 -250 0 -280 7 -21 7 -22 15 -2 9 24 10 210 0
285 l-7 55 -8 -58z"/>
</g>
</svg>
